<svg xmlns="http://www.w3.org/2000/svg" xmlns:xlink="http://www.w3.org/1999/xlink" width="221.412" height="97.776" viewBox="0 0 221.412 97.776">
  <defs>
    <clipPath id="clip-path">
      <path id="Path_3100" data-name="Path 3100" d="M0-19.2H221.412V-116.98H0Z" transform="translate(0 116.98)" fill="none"/>
    </clipPath>
  </defs>
  <g id="_02_parker_logo" data-name="02_parker_logo" transform="translate(0 116.981)">
    <g id="Group_2964" data-name="Group 2964" transform="translate(0 -116.98)" clip-path="url(#clip-path)">
      <g id="Group_2963" data-name="Group 2963" transform="translate(85.028 48.624)">
        <path id="Path_3099" data-name="Path 3099" d="M-2.682-.357a7.834,7.834,0,0,0-5.591-1.82h-8.065V18.409h4.979V11.188h3.086a8.976,8.976,0,0,0,4.106-.859A5.956,5.956,0,0,0-1.619,7.97,6.765,6.765,0,0,0-.761,4.549,6.437,6.437,0,0,0-2.682-.357M-8.826,7.2h-2.533V1.841h2.533q3,0,3,2.708,0,2.65-3,2.65" transform="translate(16.338 2.177)" fill="#2b2e34"/>
      </g>
    </g>
    <g id="Group_2965" data-name="Group 2965" transform="translate(104.478 -68.21)">
      <path id="Path_3101" data-name="Path 3101" d="M-2.608,0H-8.344l-7.541,20.44h5.241l1.281-3.756h7.716l1.28,3.756h5.3ZM-8.082,12.9l2.591-7.571L-2.928,12.9Z" transform="translate(15.885)" fill="#2b2e34"/>
    </g>
    <g id="Group_2967" data-name="Group 2967" transform="translate(0 -116.98)" clip-path="url(#clip-path)">
      <g id="Group_2966" data-name="Group 2966" transform="translate(131.877 48.624)">
        <path id="Path_3102" data-name="Path 3102" d="M-2.2-2.454A6.324,6.324,0,0,0,1.4-4.608,5.977,5.977,0,0,0,2.637-8.422a6.636,6.636,0,0,0-.844-3.363A5.836,5.836,0,0,0-.74-14.1a9.185,9.185,0,0,0-4.135-.844h-8.5V5.641H-8.4V-2.133h1.135l4.455,7.775H2.7ZM-3.128-6.2a3.106,3.106,0,0,1-2.184.655H-8.4v-5.212h3.086a2.989,2.989,0,0,1,2.17.7,2.565,2.565,0,0,1,.713,1.922,2.524,2.524,0,0,1-.7,1.936" transform="translate(13.377 14.945)" fill="#2b2e34"/>
      </g>
    </g>
    <g id="Group_2968" data-name="Group 2968" transform="translate(157.384 -68.356)">
      <path id="Path_3104" data-name="Path 3104" d="M-3.534,0l-8.3,10.075,8.3,10.511H-9.562l-6.988-9.231v9.231h-4.979V0h4.979V9.055L-9.5,0Z" transform="translate(21.529)" fill="#2b2e34"/>
    </g>
    <g id="Group_2969" data-name="Group 2969" transform="translate(183.297 -68.356)">
      <path id="Path_3105" data-name="Path 3105" d="M0,0H12.812V3.96H4.979V8.27h6.959v3.756H4.979V16.6h7.833v3.989H0Z" fill="#2b2e34"/>
    </g>
    <g id="Group_2971" data-name="Group 2971" transform="translate(0 -116.98)" clip-path="url(#clip-path)">
      <g id="Group_2970" data-name="Group 2970" transform="translate(205.339 48.624)">
        <path id="Path_3106" data-name="Path 3106" d="M-2.2-2.454A6.324,6.324,0,0,0,1.4-4.608,5.977,5.977,0,0,0,2.637-8.422a6.636,6.636,0,0,0-.844-3.363A5.836,5.836,0,0,0-.74-14.1a9.185,9.185,0,0,0-4.135-.844h-8.5V5.641H-8.4V-2.133h1.135l4.455,7.775H2.7ZM-3.128-6.2a3.106,3.106,0,0,1-2.184.655H-8.4v-5.212h3.086a2.989,2.989,0,0,1,2.17.7,2.565,2.565,0,0,1,.713,1.922,2.524,2.524,0,0,1-.7,1.936" transform="translate(13.377 14.945)" fill="#2b2e34"/>
      </g>
    </g>
    <g id="Group_2972" data-name="Group 2972" transform="translate(85.185 -86.035)">
      <path id="Path_3108" data-name="Path 3108" d="M-.494-1.849V-9.177H-3.007v-2.088h7.66v2.088H2.113v7.328Z" transform="translate(3.007 11.265)" fill="#2b2e34"/>
    </g>
    <g id="Group_2973" data-name="Group 2973" transform="translate(96.902 -86.036)">
      <path id="Path_3109" data-name="Path 3109" d="M-1.141,0H1.465V9.416H-1.141v-3.8H-4.334v3.8H-6.953V0h2.619V3.524h3.192Z" transform="translate(6.953)" fill="#2b2e34"/>
    </g>
    <g id="Group_2974" data-name="Group 2974" transform="translate(109.961 -86.036)">
      <path id="Path_3110" data-name="Path 3110" d="M-.515-.41V1.146H2.531V3.128H-.515v1.7H2.93V6.918H-3.135V-2.5H2.93V-.41Z" transform="translate(3.135 2.498)" fill="#2b2e34"/>
    </g>
    <g id="Group_2975" data-name="Group 2975" transform="translate(0 -103.418)">
      <path id="Path_3111" data-name="Path 3111" d="M0,0V65.573l33.552,18.64L67.1,65.573V0ZM4.117,63.151V4.117H62.985V63.151L33.552,79.5Z" fill="#2b2e34"/>
    </g>
    <path id="Path_3112" data-name="Path 3112" d="M22.186-112.864H55.663v-4.117H22.186Z" transform="translate(-3.642)" fill="#2b2e34"/>
    <g id="Group_2977" data-name="Group 2977" transform="translate(0 -116.98)" clip-path="url(#clip-path)">
      <g id="Group_2976" data-name="Group 2976" transform="translate(17.645 26.924)">
        <path id="Path_3113" data-name="Path 3113" d="M-4.2-5.688H-21.48V12.375H-25.6V-9.8H-4.2A10.373,10.373,0,0,0,6.159-20.166,10.374,10.374,0,0,0-4.2-30.528H-21.48v15.734H-25.6v-19.85H-4.2A14.494,14.494,0,0,1,10.276-20.166,14.5,14.5,0,0,1-4.2-5.688" transform="translate(25.597 34.644)" fill="#2b2e34"/>
      </g>
    </g>
  </g>
</svg>
